<svg xmlns="http://www.w3.org/2000/svg" viewBox="0 0 292.95 294.9"><title>icon-sidebar</title><rect x="6.44" y="6.44" width="280.07" height="282.01" rx="8.13" ry="8.13" style="fill:#fff;stroke:#1d1d1b;stroke-miterlimit:10;stroke-width:4px"/><path d="M280.32,297H16.3A12.49,12.49,0,0,1,3.83,284.53v-266A12.49,12.49,0,0,1,16.3,6.1h264a12.48,12.48,0,0,1,12.46,12.47v266A12.48,12.48,0,0,1,280.32,297ZM16.3,15a3.59,3.59,0,0,0-3.58,3.58v266a3.58,3.58,0,0,0,3.58,3.58h264a3.58,3.58,0,0,0,3.58-3.58v-266A3.59,3.59,0,0,0,280.32,15Z" transform="translate(-1.83 -4.1)" style="fill:#1d1d1b;stroke:#1d1d1b;stroke-miterlimit:10;stroke-width:4px"/><path d="M287.21,84.36H8.64a4.44,4.44,0,0,1,0-8.88H287.21a4.44,4.44,0,0,1,0,8.88Z" transform="translate(-1.83 -4.1)" style="fill:#1d1d1b;stroke:#1d1d1b;stroke-miterlimit:10;stroke-width:4px"/><circle cx="38.78" cy="38.75" r="15.88" style="fill:#1d1d1b"/><circle cx="93.98" cy="38.75" r="15.88" style="fill:#1d1d1b"/><circle cx="149.19" cy="38.75" r="15.88" style="fill:#1d1d1b"/><path d="M129.2,119.29H30.53c-2,0-3.64-2-3.64-4.45s1.63-4.44,3.64-4.44H129.2c2,0,3.64,2,3.64,4.44S131.21,119.29,129.2,119.29Z" transform="translate(-1.83 -4.1)" style="stroke:#1d1d1b;stroke-miterlimit:10;stroke-width:4px"/><path d="M130.82,151H30.87c-2,0-3.68-2-3.68-4.5s1.65-4.5,3.68-4.5h99.95c2,0,3.68,2,3.68,4.5S132.85,151,130.82,151Z" transform="translate(-1.83 -4.1)" style="stroke:#1d1d1b;stroke-miterlimit:10;stroke-width:4px"/><path d="M130.82,185H30.87c-2,0-3.68-2-3.68-4.5s1.65-4.5,3.68-4.5h99.95c2,0,3.68,2,3.68,4.5S132.85,185,130.82,185Z" transform="translate(-1.83 -4.1)" style="stroke:#1d1d1b;stroke-miterlimit:10;stroke-width:4px"/><path d="M130.82,219H30.87c-2,0-3.68-2-3.68-4.5s1.65-4.5,3.68-4.5h99.95c2,0,3.68,2,3.68,4.5S132.85,219,130.82,219Z" transform="translate(-1.83 -4.1)" style="stroke:#1d1d1b;stroke-miterlimit:10;stroke-width:4px"/><path d="M130.82,252.94H30.87c-2,0-3.68-2-3.68-4.5s1.65-4.5,3.68-4.5h99.95c2,0,3.68,2,3.68,4.5S132.85,252.94,130.82,252.94Z" transform="translate(-1.83 -4.1)" style="stroke:#1d1d1b;stroke-miterlimit:10;stroke-width:4px"/><path d="M263.69,184.29H153.79a6,6,0,0,1-6-6V114.23a6,6,0,0,1,6-6h109.9a6,6,0,0,1,6,6v64.06A6,6,0,0,1,263.69,184.29Zm-103.9-12h97.9V120.23h-97.9Z" transform="translate(-1.83 -4.1)" style="fill:#1d1d1b"/></svg>